<mxfile host="app.diagrams.net" modified="2024-02-21T05:18:49.928Z" agent="Mozilla/5.0 (Windows NT 10.0; Win64; x64) AppleWebKit/537.36 (KHTML, like Gecko) Chrome/121.0.0.0 Safari/537.36 Edg/121.0.0.0" etag="pr9qAAPtTqINCrMj5c4g" version="23.1.5" type="device">
  <diagram name="Page-1" id="fm7J_90gH_SMSmR-mzy0">
    <mxGraphModel dx="2236" dy="751" grid="1" gridSize="10" guides="1" tooltips="1" connect="1" arrows="1" fold="1" page="1" pageScale="1" pageWidth="850" pageHeight="1100" math="0" shadow="0">
      <root>
        <mxCell id="0" />
        <mxCell id="1" parent="0" />
        <mxCell id="x114zoovSG6hRaaN-Ttu-1" value="" style="sketch=0;points=[[0,0,0],[0.25,0,0],[0.5,0,0],[0.75,0,0],[1,0,0],[0,1,0],[0.25,1,0],[0.5,1,0],[0.75,1,0],[1,1,0],[0,0.25,0],[0,0.5,0],[0,0.75,0],[1,0.25,0],[1,0.5,0],[1,0.75,0]];outlineConnect=0;fontColor=#232F3E;fillColor=#7AA116;strokeColor=#ffffff;dashed=0;verticalLabelPosition=bottom;verticalAlign=top;align=center;html=1;fontSize=12;fontStyle=0;aspect=fixed;shape=mxgraph.aws4.resourceIcon;resIcon=mxgraph.aws4.s3;" vertex="1" parent="1">
          <mxGeometry x="820" y="281" width="78" height="78" as="geometry" />
        </mxCell>
        <mxCell id="x114zoovSG6hRaaN-Ttu-2" value="" style="aspect=fixed;sketch=0;html=1;dashed=0;whitespace=wrap;fillColor=#2875E2;strokeColor=#ffffff;points=[[0.005,0.63,0],[0.1,0.2,0],[0.9,0.2,0],[0.5,0,0],[0.995,0.63,0],[0.72,0.99,0],[0.5,1,0],[0.28,0.99,0]];shape=mxgraph.kubernetes.icon2;kubernetesLabel=1;prIcon=api" vertex="1" parent="1">
          <mxGeometry x="-90" y="200" width="83.34" height="80" as="geometry" />
        </mxCell>
        <mxCell id="x114zoovSG6hRaaN-Ttu-3" value="&lt;font style=&quot;font-size: 14px;&quot;&gt;Steam Store&lt;br&gt;API&lt;/font&gt;" style="text;html=1;align=center;verticalAlign=middle;whiteSpace=wrap;rounded=0;" vertex="1" parent="1">
          <mxGeometry x="-78.32999999999998" y="290" width="60" height="30" as="geometry" />
        </mxCell>
        <mxCell id="x114zoovSG6hRaaN-Ttu-5" value="" style="aspect=fixed;sketch=0;html=1;dashed=0;whitespace=wrap;fillColor=#2875E2;strokeColor=#ffffff;points=[[0.005,0.63,0],[0.1,0.2,0],[0.9,0.2,0],[0.5,0,0],[0.995,0.63,0],[0.72,0.99,0],[0.5,1,0],[0.28,0.99,0]];shape=mxgraph.kubernetes.icon2;kubernetesLabel=1;prIcon=api" vertex="1" parent="1">
          <mxGeometry x="-90" y="380" width="83.34" height="80" as="geometry" />
        </mxCell>
        <mxCell id="x114zoovSG6hRaaN-Ttu-6" value="&lt;font style=&quot;font-size: 14px;&quot;&gt;openexchangerates&lt;br&gt;API&lt;/font&gt;" style="text;html=1;align=center;verticalAlign=middle;whiteSpace=wrap;rounded=0;" vertex="1" parent="1">
          <mxGeometry x="-78.32999999999998" y="470" width="60" height="30" as="geometry" />
        </mxCell>
        <mxCell id="x114zoovSG6hRaaN-Ttu-7" value="" style="endArrow=classic;html=1;rounded=0;exitX=1;exitY=0.5;exitDx=0;exitDy=0;" edge="1" parent="1" source="x114zoovSG6hRaaN-Ttu-15">
          <mxGeometry width="50" height="50" relative="1" as="geometry">
            <mxPoint x="113.34" y="250" as="sourcePoint" />
            <mxPoint x="250" y="320" as="targetPoint" />
          </mxGeometry>
        </mxCell>
        <mxCell id="x114zoovSG6hRaaN-Ttu-8" value="" style="endArrow=classic;html=1;rounded=0;entryX=0;entryY=1;entryDx=0;entryDy=0;exitX=0.9;exitY=0.2;exitDx=0;exitDy=0;exitPerimeter=0;" edge="1" parent="1" source="x114zoovSG6hRaaN-Ttu-5" target="x114zoovSG6hRaaN-Ttu-15">
          <mxGeometry width="50" height="50" relative="1" as="geometry">
            <mxPoint x="-16.659999999999997" y="430" as="sourcePoint" />
            <mxPoint x="120" y="340" as="targetPoint" />
          </mxGeometry>
        </mxCell>
        <mxCell id="x114zoovSG6hRaaN-Ttu-9" value="" style="rounded=0;whiteSpace=wrap;html=1;" vertex="1" parent="1">
          <mxGeometry x="250" y="260" width="470" height="120" as="geometry" />
        </mxCell>
        <mxCell id="x114zoovSG6hRaaN-Ttu-10" value="get_currecy_rates" style="whiteSpace=wrap;html=1;aspect=fixed;" vertex="1" parent="1">
          <mxGeometry x="290" y="265" width="110" height="110" as="geometry" />
        </mxCell>
        <mxCell id="x114zoovSG6hRaaN-Ttu-11" value="get_price_per_app" style="whiteSpace=wrap;html=1;aspect=fixed;" vertex="1" parent="1">
          <mxGeometry x="430" y="265" width="110" height="110" as="geometry" />
        </mxCell>
        <mxCell id="x114zoovSG6hRaaN-Ttu-12" value="save_df_to_parquet" style="whiteSpace=wrap;html=1;aspect=fixed;" vertex="1" parent="1">
          <mxGeometry x="570" y="265" width="110" height="110" as="geometry" />
        </mxCell>
        <mxCell id="x114zoovSG6hRaaN-Ttu-13" value="" style="endArrow=classic;html=1;rounded=0;" edge="1" parent="1">
          <mxGeometry width="50" height="50" relative="1" as="geometry">
            <mxPoint x="680" y="320" as="sourcePoint" />
            <mxPoint x="810" y="320" as="targetPoint" />
          </mxGeometry>
        </mxCell>
        <mxCell id="x114zoovSG6hRaaN-Ttu-14" value="Digital&lt;br&gt;Ocean&lt;br&gt;Space" style="text;html=1;align=center;verticalAlign=middle;whiteSpace=wrap;rounded=0;" vertex="1" parent="1">
          <mxGeometry x="829" y="370" width="60" height="30" as="geometry" />
        </mxCell>
        <mxCell id="x114zoovSG6hRaaN-Ttu-15" value="" style="image;aspect=fixed;perimeter=ellipsePerimeter;html=1;align=center;shadow=0;dashed=0;spacingTop=3;image=img/lib/active_directory/internet_cloud.svg;" vertex="1" parent="1">
          <mxGeometry x="50" y="291.65000000000003" width="90" height="56.7" as="geometry" />
        </mxCell>
        <mxCell id="x114zoovSG6hRaaN-Ttu-16" value="" style="endArrow=classic;html=1;rounded=0;entryX=0;entryY=0.25;entryDx=0;entryDy=0;exitX=0.995;exitY=0.63;exitDx=0;exitDy=0;exitPerimeter=0;" edge="1" parent="1" source="x114zoovSG6hRaaN-Ttu-2" target="x114zoovSG6hRaaN-Ttu-15">
          <mxGeometry width="50" height="50" relative="1" as="geometry">
            <mxPoint x="-18.33" y="255" as="sourcePoint" />
            <mxPoint x="73.67" y="190" as="targetPoint" />
          </mxGeometry>
        </mxCell>
        <mxCell id="x114zoovSG6hRaaN-Ttu-17" value="&lt;font style=&quot;font-size: 19px;&quot;&gt;&lt;b&gt;SteamPricesETL&lt;/b&gt;&lt;/font&gt;" style="text;html=1;align=center;verticalAlign=middle;whiteSpace=wrap;rounded=0;" vertex="1" parent="1">
          <mxGeometry x="455" y="225" width="60" height="30" as="geometry" />
        </mxCell>
        <mxCell id="x114zoovSG6hRaaN-Ttu-18" value="&lt;font style=&quot;font-size: 14px;&quot;&gt;Internet&lt;/font&gt;" style="text;html=1;align=center;verticalAlign=middle;whiteSpace=wrap;rounded=0;" vertex="1" parent="1">
          <mxGeometry x="65" y="345" width="60" height="30" as="geometry" />
        </mxCell>
      </root>
    </mxGraphModel>
  </diagram>
</mxfile>
